<svg xmlns="http://www.w3.org/2000/svg" viewBox="0 0 89.39 70.22"><g id="Layer_2" data-name="Layer 2"><g id="Layer_1-2" data-name="Layer 1"><path d="M7.35,41.53H25.5l-8.07,6.06Zm4.43,6.37H3.19V42.75Zm18.6-6,10.09,6H22.31ZM36,41.53H54.19l-8.07,6.06Zm23,.32,10.08,6H51Zm5.65-.32H82.87l-8.06,6.06Zm21.34,1.59V47.9H79.69ZM3.19,38.34V32H86.06v6.37ZM86.06,70.22H3.19V63.84H86.06Zm-1.59-9.57H4.78a4.78,4.78,0,1,1,0-9.56H84.47a4.78,4.78,0,1,1,0,9.56ZM7.49,9.56H25.64l-8.07,6.06Zm4.43,6.38H3.33V10.78Zm18.6-6.06,10.09,6.06H22.46Zm5.66-.32H54.33l-8.07,6.06Zm23,.32L69.3,15.94H51.14Zm5.65-.32H83L75,15.62Zm21.34,1.6v4.78H79.83ZM3.33,6.37V0H86.2V6.37ZM84.61,28.69H4.92a4.79,4.79,0,0,1,0-9.57H84.61a4.79,4.79,0,0,1,0,9.57Z"/><path d="M15,56.4,7,53.21a1.59,1.59,0,0,0-1.18,3l8,3.19a1.59,1.59,0,1,0,1.18-3Z"/><path d="M29.33,56.4l-8-3.19a1.6,1.6,0,0,0-1.19,3l8,3.19a1.6,1.6,0,1,0,1.19-3Z"/><path d="M43.67,56.4l-8-3.19a1.59,1.59,0,0,0-1.18,3l8,3.19a1.59,1.59,0,1,0,1.18-3Z"/><path d="M58,56.4l-8-3.19a1.59,1.59,0,0,0-1.18,3l8,3.19a1.59,1.59,0,1,0,1.18-3Z"/><path d="M72.36,56.4l-8-3.19a1.59,1.59,0,0,0-1.18,3l8,3.19a1.6,1.6,0,1,0,1.19-3Z"/><path d="M86.7,56.4l-8-3.19a1.59,1.59,0,1,0-1.18,3l8,3.19a1.59,1.59,0,0,0,1.18-3Z"/></g></g></svg>